<mxfile host="www.draw.io" modified="2020-02-28T15:40:41.602Z" agent="Mozilla/5.0 (Macintosh; Intel Mac OS X 10_14_6) AppleWebKit/537.36 (KHTML, like Gecko) Chrome/80.0.3987.116 Safari/537.36" etag="uUlgQVvPxDWeUTJ4YyWH" version="12.7.9" type="github">
  <diagram id="yviTmucWo-bWMPEQcKQ5" name="Page-1">
    <mxGraphModel dx="1254" dy="814" grid="1" gridSize="10" guides="1" tooltips="1" connect="1" arrows="1" fold="1" page="1" pageScale="1" pageWidth="850" pageHeight="1100" math="0" shadow="0">
      <root>
        <mxCell id="0" />
        <mxCell id="1" parent="0" />
        <mxCell id="ybkCsWTsAJ5RF2UA_Voc-29" value="Issuer Systems" style="rounded=0;whiteSpace=wrap;html=1;strokeWidth=2;fillColor=#f5f5f5;strokeColor=none;fontColor=#333333;align=left;verticalAlign=top;fontStyle=1;fontSize=16;" parent="1" vertex="1">
          <mxGeometry x="40" y="40" width="470" height="400" as="geometry" />
        </mxCell>
        <mxCell id="ybkCsWTsAJ5RF2UA_Voc-1" value="(3) Front End&lt;br&gt;(UI)" style="rounded=1;whiteSpace=wrap;html=1;" parent="1" vertex="1">
          <mxGeometry x="360" y="80" width="120" height="60" as="geometry" />
        </mxCell>
        <mxCell id="ybkCsWTsAJ5RF2UA_Voc-2" value="(4) Holder Communication&lt;br&gt;Interface&lt;br&gt;(e.g. CHAPI, DIDComm, ...)" style="rounded=1;whiteSpace=wrap;html=1;" parent="1" vertex="1">
          <mxGeometry x="360" y="160" width="120" height="80" as="geometry" />
        </mxCell>
        <mxCell id="ybkCsWTsAJ5RF2UA_Voc-4" value="(5) Application Services" style="rounded=0;whiteSpace=wrap;html=1;" parent="1" vertex="1">
          <mxGeometry x="200" y="80" width="120" height="140" as="geometry" />
        </mxCell>
        <mxCell id="ybkCsWTsAJ5RF2UA_Voc-5" value="(6) Subject&lt;br&gt;Database" style="shape=cylinder;whiteSpace=wrap;html=1;boundedLbl=1;backgroundOutline=1;" parent="1" vertex="1">
          <mxGeometry x="60" y="110" width="60" height="80" as="geometry" />
        </mxCell>
        <mxCell id="ybkCsWTsAJ5RF2UA_Voc-6" value="(7) Verifiable&lt;br&gt;Credentials &lt;br&gt;Issuer HTTP API" style="rounded=0;whiteSpace=wrap;html=1;strokeWidth=3;fontStyle=1" parent="1" vertex="1">
          <mxGeometry x="200" y="270" width="120" height="60" as="geometry" />
        </mxCell>
        <mxCell id="ybkCsWTsAJ5RF2UA_Voc-7" value="(10) DID Resolver" style="rounded=0;whiteSpace=wrap;html=1;" parent="1" vertex="1">
          <mxGeometry x="200" y="360" width="120" height="60" as="geometry" />
        </mxCell>
        <mxCell id="ybkCsWTsAJ5RF2UA_Voc-8" value="(9) Credential Store" style="shape=cylinder;whiteSpace=wrap;html=1;boundedLbl=1;backgroundOutline=1;dashed=1;strokeWidth=2;" parent="1" vertex="1">
          <mxGeometry x="60" y="350" width="60" height="60" as="geometry" />
        </mxCell>
        <mxCell id="ybkCsWTsAJ5RF2UA_Voc-9" value="registry-1" style="shape=dataStorage;whiteSpace=wrap;html=1;" parent="1" vertex="1">
          <mxGeometry x="130" y="460" width="60" height="40" as="geometry" />
        </mxCell>
        <mxCell id="ybkCsWTsAJ5RF2UA_Voc-10" value="registry-n" style="shape=dataStorage;whiteSpace=wrap;html=1;" parent="1" vertex="1">
          <mxGeometry x="340" y="460" width="60" height="40" as="geometry" />
        </mxCell>
        <mxCell id="ybkCsWTsAJ5RF2UA_Voc-11" value="registry-2" style="shape=dataStorage;whiteSpace=wrap;html=1;" parent="1" vertex="1">
          <mxGeometry x="240" y="460" width="60" height="40" as="geometry" />
        </mxCell>
        <mxCell id="ybkCsWTsAJ5RF2UA_Voc-13" value="(11) Public API&lt;br&gt;Gateway" style="rounded=1;whiteSpace=wrap;html=1;dashed=1;" parent="1" vertex="1">
          <mxGeometry x="420" y="270" width="65" height="60" as="geometry" />
        </mxCell>
        <mxCell id="ybkCsWTsAJ5RF2UA_Voc-14" value="" style="endArrow=open;dashed=1;html=1;exitX=0;exitY=0.5;exitDx=0;exitDy=0;endFill=0;entryX=1;entryY=0.5;entryDx=0;entryDy=0;" parent="1" source="ybkCsWTsAJ5RF2UA_Voc-13" target="ybkCsWTsAJ5RF2UA_Voc-6" edge="1">
          <mxGeometry width="50" height="50" relative="1" as="geometry">
            <mxPoint x="360" y="470" as="sourcePoint" />
            <mxPoint x="365" y="360" as="targetPoint" />
          </mxGeometry>
        </mxCell>
        <mxCell id="ybkCsWTsAJ5RF2UA_Voc-36" value="Public&lt;br&gt;API" style="text;html=1;align=center;verticalAlign=middle;resizable=0;points=[];labelBackgroundColor=#ffffff;fontSize=12;" parent="ybkCsWTsAJ5RF2UA_Voc-14" vertex="1" connectable="0">
          <mxGeometry x="-0.1111" y="-1" relative="1" as="geometry">
            <mxPoint as="offset" />
          </mxGeometry>
        </mxCell>
        <mxCell id="ybkCsWTsAJ5RF2UA_Voc-15" value="" style="endArrow=open;dashed=1;html=1;entryX=1;entryY=0.5;entryDx=0;entryDy=0;endFill=0;" parent="1" target="ybkCsWTsAJ5RF2UA_Voc-13" edge="1">
          <mxGeometry width="50" height="50" relative="1" as="geometry">
            <mxPoint x="640" y="300" as="sourcePoint" />
            <mxPoint x="610" y="280" as="targetPoint" />
          </mxGeometry>
        </mxCell>
        <mxCell id="ybkCsWTsAJ5RF2UA_Voc-16" value="" style="endArrow=classic;html=1;exitX=0.5;exitY=1;exitDx=0;exitDy=0;" parent="1" source="ybkCsWTsAJ5RF2UA_Voc-4" target="ybkCsWTsAJ5RF2UA_Voc-6" edge="1">
          <mxGeometry width="50" height="50" relative="1" as="geometry">
            <mxPoint x="360" y="470" as="sourcePoint" />
            <mxPoint x="410" y="420" as="targetPoint" />
          </mxGeometry>
        </mxCell>
        <mxCell id="ybkCsWTsAJ5RF2UA_Voc-35" value="Internal API" style="text;html=1;align=center;verticalAlign=middle;resizable=0;points=[];labelBackgroundColor=#ffffff;fontSize=12;" parent="ybkCsWTsAJ5RF2UA_Voc-16" vertex="1" connectable="0">
          <mxGeometry y="-1" relative="1" as="geometry">
            <mxPoint as="offset" />
          </mxGeometry>
        </mxCell>
        <mxCell id="ybkCsWTsAJ5RF2UA_Voc-17" value="(8) Key Vault&lt;br&gt;(KMS)" style="shape=cylinder;whiteSpace=wrap;html=1;boundedLbl=1;backgroundOutline=1;" parent="1" vertex="1">
          <mxGeometry x="60" y="270" width="60" height="60" as="geometry" />
        </mxCell>
        <mxCell id="ybkCsWTsAJ5RF2UA_Voc-18" value="" style="endArrow=classic;html=1;exitX=0.5;exitY=1;exitDx=0;exitDy=0;entryX=0.5;entryY=0;entryDx=0;entryDy=0;" parent="1" source="ybkCsWTsAJ5RF2UA_Voc-7" target="ybkCsWTsAJ5RF2UA_Voc-10" edge="1">
          <mxGeometry width="50" height="50" relative="1" as="geometry">
            <mxPoint x="360" y="470" as="sourcePoint" />
            <mxPoint x="410" y="420" as="targetPoint" />
          </mxGeometry>
        </mxCell>
        <mxCell id="ybkCsWTsAJ5RF2UA_Voc-19" value="" style="endArrow=classic;html=1;exitX=0.5;exitY=1;exitDx=0;exitDy=0;entryX=0.5;entryY=0;entryDx=0;entryDy=0;" parent="1" source="ybkCsWTsAJ5RF2UA_Voc-7" target="ybkCsWTsAJ5RF2UA_Voc-11" edge="1">
          <mxGeometry width="50" height="50" relative="1" as="geometry">
            <mxPoint x="300" y="430" as="sourcePoint" />
            <mxPoint x="380" y="470" as="targetPoint" />
          </mxGeometry>
        </mxCell>
        <mxCell id="ybkCsWTsAJ5RF2UA_Voc-20" value="" style="endArrow=classic;html=1;exitX=0.5;exitY=1;exitDx=0;exitDy=0;entryX=0.5;entryY=0;entryDx=0;entryDy=0;" parent="1" source="ybkCsWTsAJ5RF2UA_Voc-7" target="ybkCsWTsAJ5RF2UA_Voc-9" edge="1">
          <mxGeometry width="50" height="50" relative="1" as="geometry">
            <mxPoint x="270" y="430" as="sourcePoint" />
            <mxPoint x="280" y="470" as="targetPoint" />
          </mxGeometry>
        </mxCell>
        <mxCell id="ybkCsWTsAJ5RF2UA_Voc-21" value="" style="endArrow=classic;html=1;entryX=1;entryY=0.5;entryDx=0;entryDy=0;exitX=0;exitY=0.5;exitDx=0;exitDy=0;" parent="1" source="ybkCsWTsAJ5RF2UA_Voc-6" target="ybkCsWTsAJ5RF2UA_Voc-17" edge="1">
          <mxGeometry width="50" height="50" relative="1" as="geometry">
            <mxPoint x="360" y="470" as="sourcePoint" />
            <mxPoint x="410" y="420" as="targetPoint" />
          </mxGeometry>
        </mxCell>
        <mxCell id="ybkCsWTsAJ5RF2UA_Voc-22" value="" style="endArrow=open;dashed=1;html=1;entryX=1;entryY=0.5;entryDx=0;entryDy=0;exitX=0;exitY=0.75;exitDx=0;exitDy=0;endFill=0;" parent="1" source="ybkCsWTsAJ5RF2UA_Voc-6" target="ybkCsWTsAJ5RF2UA_Voc-8" edge="1">
          <mxGeometry width="50" height="50" relative="1" as="geometry">
            <mxPoint x="360" y="470" as="sourcePoint" />
            <mxPoint x="410" y="420" as="targetPoint" />
          </mxGeometry>
        </mxCell>
        <mxCell id="ybkCsWTsAJ5RF2UA_Voc-23" value="" style="endArrow=classic;html=1;exitX=0.5;exitY=1;exitDx=0;exitDy=0;entryX=0.5;entryY=0;entryDx=0;entryDy=0;" parent="1" source="ybkCsWTsAJ5RF2UA_Voc-6" target="ybkCsWTsAJ5RF2UA_Voc-7" edge="1">
          <mxGeometry width="50" height="50" relative="1" as="geometry">
            <mxPoint x="360" y="470" as="sourcePoint" />
            <mxPoint x="410" y="420" as="targetPoint" />
          </mxGeometry>
        </mxCell>
        <mxCell id="ybkCsWTsAJ5RF2UA_Voc-24" value="" style="endArrow=classic;html=1;exitX=0;exitY=0.5;exitDx=0;exitDy=0;" parent="1" source="ybkCsWTsAJ5RF2UA_Voc-1" edge="1">
          <mxGeometry width="50" height="50" relative="1" as="geometry">
            <mxPoint x="360" y="470" as="sourcePoint" />
            <mxPoint x="320" y="110" as="targetPoint" />
          </mxGeometry>
        </mxCell>
        <mxCell id="ybkCsWTsAJ5RF2UA_Voc-25" value="" style="endArrow=classic;html=1;exitX=0;exitY=0.5;exitDx=0;exitDy=0;" parent="1" source="ybkCsWTsAJ5RF2UA_Voc-2" edge="1">
          <mxGeometry width="50" height="50" relative="1" as="geometry">
            <mxPoint x="360" y="470" as="sourcePoint" />
            <mxPoint x="320" y="200" as="targetPoint" />
          </mxGeometry>
        </mxCell>
        <mxCell id="ybkCsWTsAJ5RF2UA_Voc-26" value="" style="endArrow=classic;html=1;entryX=1;entryY=0.5;entryDx=0;entryDy=0;exitX=0;exitY=0.5;exitDx=0;exitDy=0;" parent="1" source="ybkCsWTsAJ5RF2UA_Voc-4" target="ybkCsWTsAJ5RF2UA_Voc-5" edge="1">
          <mxGeometry width="50" height="50" relative="1" as="geometry">
            <mxPoint x="360" y="470" as="sourcePoint" />
            <mxPoint x="410" y="420" as="targetPoint" />
          </mxGeometry>
        </mxCell>
        <mxCell id="ybkCsWTsAJ5RF2UA_Voc-27" value="(2) Holder / Wallet" style="rounded=0;whiteSpace=wrap;html=1;" parent="1" vertex="1">
          <mxGeometry x="600" y="170" width="120" height="60" as="geometry" />
        </mxCell>
        <mxCell id="ybkCsWTsAJ5RF2UA_Voc-28" value="(1) User Agent&lt;br&gt;(Browser/App)" style="rounded=0;whiteSpace=wrap;html=1;" parent="1" vertex="1">
          <mxGeometry x="600" y="80" width="120" height="60" as="geometry" />
        </mxCell>
        <mxCell id="ybkCsWTsAJ5RF2UA_Voc-30" value="" style="endArrow=classic;html=1;fontSize=16;entryX=1;entryY=0.5;entryDx=0;entryDy=0;exitX=0;exitY=0.5;exitDx=0;exitDy=0;" parent="1" source="ybkCsWTsAJ5RF2UA_Voc-27" target="ybkCsWTsAJ5RF2UA_Voc-2" edge="1">
          <mxGeometry width="50" height="50" relative="1" as="geometry">
            <mxPoint x="360" y="440" as="sourcePoint" />
            <mxPoint x="410" y="390" as="targetPoint" />
          </mxGeometry>
        </mxCell>
        <mxCell id="ybkCsWTsAJ5RF2UA_Voc-31" value="" style="endArrow=classic;html=1;fontSize=16;entryX=1;entryY=0.5;entryDx=0;entryDy=0;exitX=0;exitY=0.5;exitDx=0;exitDy=0;" parent="1" source="ybkCsWTsAJ5RF2UA_Voc-28" target="ybkCsWTsAJ5RF2UA_Voc-1" edge="1">
          <mxGeometry width="50" height="50" relative="1" as="geometry">
            <mxPoint x="610" y="200" as="sourcePoint" />
            <mxPoint x="490" y="200" as="targetPoint" />
          </mxGeometry>
        </mxCell>
        <mxCell id="ybkCsWTsAJ5RF2UA_Voc-32" value="" style="endArrow=none;dashed=1;html=1;fontSize=16;entryX=0.5;entryY=1;entryDx=0;entryDy=0;exitX=0.5;exitY=0;exitDx=0;exitDy=0;" parent="1" source="ybkCsWTsAJ5RF2UA_Voc-27" target="ybkCsWTsAJ5RF2UA_Voc-28" edge="1">
          <mxGeometry width="50" height="50" relative="1" as="geometry">
            <mxPoint x="360" y="440" as="sourcePoint" />
            <mxPoint x="410" y="390" as="targetPoint" />
          </mxGeometry>
        </mxCell>
        <mxCell id="ybkCsWTsAJ5RF2UA_Voc-33" value="" style="endArrow=none;dashed=1;html=1;fontSize=16;entryX=0.5;entryY=1;entryDx=0;entryDy=0;" parent="1" target="ybkCsWTsAJ5RF2UA_Voc-1" edge="1">
          <mxGeometry width="50" height="50" relative="1" as="geometry">
            <mxPoint x="420" y="160" as="sourcePoint" />
            <mxPoint x="410" y="390" as="targetPoint" />
          </mxGeometry>
        </mxCell>
        <mxCell id="ybkCsWTsAJ5RF2UA_Voc-34" value="(12) Verifier or Holder" style="text;html=1;strokeColor=none;fillColor=none;align=left;verticalAlign=middle;whiteSpace=wrap;rounded=0;fontSize=12;" parent="1" vertex="1">
          <mxGeometry x="640" y="290" width="140" height="20" as="geometry" />
        </mxCell>
      </root>
    </mxGraphModel>
  </diagram>
</mxfile>
